<?xml version="1.0" encoding="UTF-8" standalone="no"?>
<!DOCTYPE svg PUBLIC "-//W3C//DTD SVG 1.1//EN"
 "http://www.w3.org/Graphics/SVG/1.1/DTD/svg11.dtd">
<!-- Generated by graphviz version 2.40.1 (20161225.0304)
 -->
<!-- Title: dependencies Pages: 1 -->
<svg width="680pt" height="284pt"
 viewBox="0.00 0.00 680.00 284.00" xmlns="http://www.w3.org/2000/svg" xmlns:xlink="http://www.w3.org/1999/xlink">
<g id="graph0" class="graph" transform="scale(1 1) rotate(0) translate(4 280)">
<title>dependencies</title>
<polygon fill="#ffffff" stroke="transparent" points="-4,4 -4,-280 676,-280 676,4 -4,4"/>
<text text-anchor="start" x="315.0091" y="-42.4" font-family="sans-serif" font-weight="bold" font-size="14.00" fill="#000000">Legend</text>
<polygon fill="#ffffb3" stroke="transparent" points="102,-10 102,-30 122,-30 122,-10 102,-10"/>
<text text-anchor="start" x="125.629" y="-15.4" font-family="sans-serif" font-size="14.00" fill="#000000"> &#160;Declarations</text>
<polygon fill="#8dd3c7" stroke="transparent" points="215,-10 215,-30 235,-30 235,-10 215,-10"/>
<text text-anchor="start" x="238.7251" y="-15.4" font-family="sans-serif" font-size="14.00" fill="#000000"> &#160;Module</text>
<polygon fill="#80b1d3" stroke="transparent" points="301,-10 301,-30 321,-30 321,-10 301,-10"/>
<text text-anchor="start" x="324.7812" y="-15.4" font-family="sans-serif" font-size="14.00" fill="#000000"> &#160;Bootstrap</text>
<polygon fill="#fdb462" stroke="transparent" points="398,-10 398,-30 418,-30 418,-10 398,-10"/>
<text text-anchor="start" x="421.6732" y="-15.4" font-family="sans-serif" font-size="14.00" fill="#000000"> &#160;Providers</text>
<polygon fill="#fb8072" stroke="transparent" points="494,-10 494,-30 514,-30 514,-10 494,-10"/>
<text text-anchor="start" x="517.7258" y="-15.4" font-family="sans-serif" font-size="14.00" fill="#000000"> &#160;Exports</text>
<g id="clust1" class="cluster">
<title>cluster_PatientModule</title>
<polygon fill="none" stroke="#000000" stroke-dasharray="1,5" points="8,-70 8,-268 664,-268 664,-70 8,-70"/>
</g>
<g id="clust2" class="cluster">
<title>cluster_PatientModule_declarations</title>
<polygon fill="none" stroke="#000000" points="16,-78 16,-130 656,-130 656,-78 16,-78"/>
</g>
<g id="clust8" class="cluster">
<title>cluster_PatientModule_exports</title>
<polygon fill="none" stroke="#000000" points="276,-208 276,-260 416,-260 416,-208 276,-208"/>
</g>
<!-- NewPatientComponent -->
<g id="node1" class="node">
<title>NewPatientComponent</title>
<polygon fill="#ffffb3" stroke="#000000" points="648.1442,-122 501.8558,-122 501.8558,-86 648.1442,-86 648.1442,-122"/>
<text text-anchor="middle" x="575" y="-99.8" font-family="Times,serif" font-size="14.00" fill="#000000">NewPatientComponent</text>
</g>
<!-- PatientModule -->
<g id="node5" class="node">
<title>PatientModule</title>
<polygon fill="#8dd3c7" stroke="#000000" points="395.4344,-187 392.4344,-191 371.4344,-191 368.4344,-187 296.5656,-187 296.5656,-151 395.4344,-151 395.4344,-187"/>
<text text-anchor="middle" x="346" y="-164.8" font-family="Times,serif" font-size="14.00" fill="#000000">PatientModule</text>
</g>
<!-- NewPatientComponent&#45;&gt;PatientModule -->
<g id="edge1" class="edge">
<title>NewPatientComponent&#45;&gt;PatientModule</title>
<path fill="none" stroke="#000000" d="M575,-122.1061C575,-141.3391 575,-169 575,-169 575,-169 405.4077,-169 405.4077,-169"/>
<polygon fill="#000000" stroke="#000000" points="405.4077,-165.5001 395.4077,-169 405.4076,-172.5001 405.4077,-165.5001"/>
</g>
<!-- PatientComponent -->
<g id="node2" class="node">
<title>PatientComponent</title>
<polygon fill="#ffffb3" stroke="#000000" points="484.2162,-122 363.7838,-122 363.7838,-86 484.2162,-86 484.2162,-122"/>
<text text-anchor="middle" x="424" y="-99.8" font-family="Times,serif" font-size="14.00" fill="#000000">PatientComponent</text>
</g>
<!-- PatientComponent&#45;&gt;PatientModule -->
<g id="edge2" class="edge">
<title>PatientComponent&#45;&gt;PatientModule</title>
<path fill="none" stroke="#000000" d="M379.5544,-122.1061C379.5544,-122.1061 379.5544,-140.991 379.5544,-140.991"/>
<polygon fill="#000000" stroke="#000000" points="376.0544,-140.9909 379.5544,-150.991 383.0544,-140.991 376.0544,-140.9909"/>
</g>
<!-- PatientDetailComponent -->
<g id="node3" class="node">
<title>PatientDetailComponent</title>
<polygon fill="#ffffb3" stroke="#000000" points="346.4242,-122 191.5758,-122 191.5758,-86 346.4242,-86 346.4242,-122"/>
<text text-anchor="middle" x="269" y="-99.8" font-family="Times,serif" font-size="14.00" fill="#000000">PatientDetailComponent</text>
</g>
<!-- PatientDetailComponent&#45;&gt;PatientModule -->
<g id="edge3" class="edge">
<title>PatientDetailComponent&#45;&gt;PatientModule</title>
<path fill="none" stroke="#000000" d="M321.4976,-122.1061C321.4976,-122.1061 321.4976,-140.991 321.4976,-140.991"/>
<polygon fill="#000000" stroke="#000000" points="317.9976,-140.9909 321.4976,-150.991 324.9976,-140.991 317.9976,-140.9909"/>
</g>
<!-- PatientViewComponent -->
<g id="node4" class="node">
<title>PatientViewComponent</title>
<polygon fill="#ffffb3" stroke="#000000" points="174.0351,-122 23.9649,-122 23.9649,-86 174.0351,-86 174.0351,-122"/>
<text text-anchor="middle" x="99" y="-99.8" font-family="Times,serif" font-size="14.00" fill="#000000">PatientViewComponent</text>
</g>
<!-- PatientViewComponent&#45;&gt;PatientModule -->
<g id="edge4" class="edge">
<title>PatientViewComponent&#45;&gt;PatientModule</title>
<path fill="none" stroke="#000000" d="M99,-122.1061C99,-141.3391 99,-169 99,-169 99,-169 286.6095,-169 286.6095,-169"/>
<polygon fill="#000000" stroke="#000000" points="286.6095,-172.5001 296.6095,-169 286.6095,-165.5001 286.6095,-172.5001"/>
</g>
<!-- PatientComponent  -->
<g id="node6" class="node">
<title>PatientComponent </title>
<polygon fill="#fb8072" stroke="#000000" points="407.7163,-252 284.2837,-252 284.2837,-216 407.7163,-216 407.7163,-252"/>
<text text-anchor="middle" x="346" y="-229.8" font-family="Times,serif" font-size="14.00" fill="#000000">PatientComponent </text>
</g>
<!-- PatientModule&#45;&gt;PatientComponent  -->
<g id="edge5" class="edge">
<title>PatientModule&#45;&gt;PatientComponent </title>
<path fill="none" stroke="#000000" stroke-dasharray="5,2" d="M346,-187.1061C346,-187.1061 346,-205.991 346,-205.991"/>
<polygon fill="#000000" stroke="#000000" points="342.5001,-205.9909 346,-215.991 349.5001,-205.991 342.5001,-205.9909"/>
</g>
</g>
</svg>
